<svg width="100" height="101" viewBox="0 0 100 101" fill="none" xmlns="http://www.w3.org/2000/svg">
<g filter="url(#filter0_di_103_3)">
<ellipse cx="52" cy="47.5" rx="46" ry="46.5" fill="url(#paint0_linear_103_3)"/>
</g>
<g filter="url(#filter1_d_103_3)">
<path d="M25.6344 44V20.7273H28.4526V32.2727H28.7253L39.1799 20.7273H42.8617L33.089 31.2273L42.8617 44H39.4526L31.3617 33.1818L28.4526 36.4545V44H25.6344ZM51.2822 44.4091C50.1761 44.4091 49.1723 44.2008 48.2708 43.7841C47.3693 43.3598 46.6534 42.75 46.1231 41.9545C45.5928 41.1515 45.3276 40.1818 45.3276 39.0455C45.3276 38.0455 45.5246 37.2348 45.9185 36.6136C46.3125 35.9848 46.839 35.4924 47.4981 35.1364C48.1572 34.7803 48.8844 34.5152 49.6799 34.3409C50.4829 34.1591 51.2897 34.0152 52.1003 33.9091C53.161 33.7727 54.0208 33.6705 54.6799 33.6023C55.3466 33.5265 55.8314 33.4015 56.1344 33.2273C56.445 33.053 56.6003 32.75 56.6003 32.3182V32.2273C56.6003 31.1061 56.2935 30.2348 55.6799 29.6136C55.0738 28.9924 54.1534 28.6818 52.9185 28.6818C51.6382 28.6818 50.6344 28.9621 49.9072 29.5227C49.1799 30.0833 48.6685 30.6818 48.3731 31.3182L45.8276 30.4091C46.2822 29.3485 46.8882 28.5227 47.6458 27.9318C48.411 27.3333 49.2443 26.9167 50.1458 26.6818C51.0549 26.4394 51.9488 26.3182 52.8276 26.3182C53.3882 26.3182 54.0322 26.3864 54.7594 26.5227C55.4943 26.6515 56.2026 26.9205 56.8844 27.3295C57.5738 27.7386 58.1458 28.3561 58.6003 29.1818C59.0549 30.0076 59.2822 31.1136 59.2822 32.5V44H56.6003V41.6364H56.464C56.2822 42.0152 55.9791 42.4205 55.5549 42.8523C55.1306 43.2841 54.5663 43.6515 53.8617 43.9545C53.1572 44.2576 52.2973 44.4091 51.2822 44.4091ZM51.6913 42C52.7519 42 53.6458 41.7917 54.3731 41.375C55.1079 40.9583 55.661 40.4205 56.0322 39.7614C56.411 39.1023 56.6003 38.4091 56.6003 37.6818V35.2273C56.4867 35.3636 56.2367 35.4886 55.8503 35.6023C55.4716 35.7083 55.0322 35.803 54.5322 35.8864C54.0397 35.9621 53.5587 36.0303 53.089 36.0909C52.6269 36.1439 52.2519 36.1894 51.964 36.2273C51.267 36.3182 50.6155 36.4659 50.0094 36.6705C49.411 36.8674 48.9261 37.1667 48.5549 37.5682C48.1913 37.9621 48.0094 38.5 48.0094 39.1818C48.0094 40.1136 48.3541 40.8182 49.0435 41.2955C49.7405 41.7652 50.6231 42 51.6913 42ZM43.6344 74V50.7273H51.4981C53.3163 50.7273 54.8087 51.0379 55.9753 51.6591C57.142 52.2727 58.0056 53.1174 58.5663 54.1932C59.1269 55.2689 59.4072 56.4924 59.4072 57.8636C59.4072 59.2348 59.1269 60.4508 58.5663 61.5114C58.0056 62.572 57.1458 63.4053 55.9867 64.0114C54.8276 64.6098 53.3466 64.9091 51.5435 64.9091H45.1799V62.3636H51.4526C52.695 62.3636 53.695 62.1818 54.4526 61.8182C55.2178 61.4545 55.7708 60.9394 56.1117 60.2727C56.4602 59.5985 56.6344 58.7955 56.6344 57.8636C56.6344 56.9318 56.4602 56.1174 56.1117 55.4205C55.7632 54.7235 55.2064 54.1856 54.4413 53.8068C53.6761 53.4205 52.6647 53.2273 51.4072 53.2273H46.4526V74H43.6344ZM54.589 63.5455L60.3163 74H57.0435L51.4072 63.5455H54.589ZM68.8759 74.4091C67.7699 74.4091 66.7661 74.2008 65.8645 73.7841C64.963 73.3598 64.2471 72.75 63.7168 71.9545C63.1865 71.1515 62.9214 70.1818 62.9214 69.0455C62.9214 68.0455 63.1183 67.2348 63.5123 66.6136C63.9062 65.9848 64.4327 65.4924 65.0918 65.1364C65.7509 64.7803 66.4782 64.5152 67.2736 64.3409C68.0767 64.1591 68.8835 64.0152 69.6941 63.9091C70.7547 63.7727 71.6145 63.6705 72.2736 63.6023C72.9403 63.5265 73.4252 63.4015 73.7282 63.2273C74.0388 63.053 74.1941 62.75 74.1941 62.3182V62.2273C74.1941 61.1061 73.8873 60.2348 73.2736 59.6136C72.6676 58.9924 71.7471 58.6818 70.5123 58.6818C69.232 58.6818 68.2282 58.9621 67.5009 59.5227C66.7736 60.0833 66.2623 60.6818 65.9668 61.3182L63.4214 60.4091C63.8759 59.3485 64.482 58.5227 65.2395 57.9318C66.0047 57.3333 66.838 56.9167 67.7395 56.6818C68.6486 56.4394 69.5426 56.3182 70.4214 56.3182C70.982 56.3182 71.6259 56.3864 72.3532 56.5227C73.088 56.6515 73.7964 56.9205 74.4782 57.3295C75.1676 57.7386 75.7395 58.3561 76.1941 59.1818C76.6486 60.0076 76.8759 61.1136 76.8759 62.5V74H74.1941V71.6364H74.0577C73.8759 72.0152 73.5729 72.4205 73.1486 72.8523C72.7244 73.2841 72.16 73.6515 71.4555 73.9545C70.7509 74.2576 69.8911 74.4091 68.8759 74.4091ZM69.285 72C70.3456 72 71.2395 71.7917 71.9668 71.375C72.7017 70.9583 73.2547 70.4205 73.6259 69.7614C74.0047 69.1023 74.1941 68.4091 74.1941 67.6818V65.2273C74.0805 65.3636 73.8305 65.4886 73.4441 65.6023C73.0653 65.7083 72.6259 65.803 72.1259 65.8864C71.6335 65.9621 71.1524 66.0303 70.6827 66.0909C70.2206 66.1439 69.8456 66.1894 69.5577 66.2273C68.8608 66.3182 68.2092 66.4659 67.6032 66.6705C67.0047 66.8674 66.5199 67.1667 66.1486 67.5682C65.785 67.9621 65.6032 68.5 65.6032 69.1818C65.6032 70.1136 65.9479 70.8182 66.6373 71.2955C67.3342 71.7652 68.2168 72 69.285 72Z" fill="white"/>
</g>
<defs>
<filter id="filter0_di_103_3" x="0" y="-3" width="100" height="104" filterUnits="userSpaceOnUse" color-interpolation-filters="sRGB">
<feFlood flood-opacity="0" result="BackgroundImageFix"/>
<feColorMatrix in="SourceAlpha" type="matrix" values="0 0 0 0 0 0 0 0 0 0 0 0 0 0 0 0 0 0 127 0" result="hardAlpha"/>
<feOffset dx="-2" dy="3"/>
<feGaussianBlur stdDeviation="2"/>
<feComposite in2="hardAlpha" operator="out"/>
<feColorMatrix type="matrix" values="0 0 0 0 0 0 0 0 0 0 0 0 0 0 0 0 0 0 0.25 0"/>
<feBlend mode="normal" in2="BackgroundImageFix" result="effect1_dropShadow_103_3"/>
<feBlend mode="normal" in="SourceGraphic" in2="effect1_dropShadow_103_3" result="shape"/>
<feColorMatrix in="SourceAlpha" type="matrix" values="0 0 0 0 0 0 0 0 0 0 0 0 0 0 0 0 0 0 127 0" result="hardAlpha"/>
<feOffset dy="-5"/>
<feGaussianBlur stdDeviation="2"/>
<feComposite in2="hardAlpha" operator="arithmetic" k2="-1" k3="1"/>
<feColorMatrix type="matrix" values="0 0 0 0 0 0 0 0 0 0 0 0 0 0 0 0 0 0 0.25 0"/>
<feBlend mode="normal" in2="shape" result="effect2_innerShadow_103_3"/>
</filter>
<filter id="filter1_d_103_3" x="21.6344" y="20.7273" width="59.2415" height="61.6818" filterUnits="userSpaceOnUse" color-interpolation-filters="sRGB">
<feFlood flood-opacity="0" result="BackgroundImageFix"/>
<feColorMatrix in="SourceAlpha" type="matrix" values="0 0 0 0 0 0 0 0 0 0 0 0 0 0 0 0 0 0 127 0" result="hardAlpha"/>
<feOffset dy="4"/>
<feGaussianBlur stdDeviation="2"/>
<feComposite in2="hardAlpha" operator="out"/>
<feColorMatrix type="matrix" values="0 0 0 0 0 0 0 0 0 0 0 0 0 0 0 0 0 0 0.25 0"/>
<feBlend mode="normal" in2="BackgroundImageFix" result="effect1_dropShadow_103_3"/>
<feBlend mode="normal" in="SourceGraphic" in2="effect1_dropShadow_103_3" result="shape"/>
</filter>
<linearGradient id="paint0_linear_103_3" x1="11.9638" y1="1.2809" x2="91.4805" y2="105.776" gradientUnits="userSpaceOnUse">
<stop stop-color="#4E32AD"/>
<stop offset="1" stop-color="#8C52FF"/>
</linearGradient>
</defs>
</svg>
